Coordinates
version=1
nRows=10
nColumns=23
inDegrees=yes

Units are S.I. units (second, meters, Newtons, ...)
If the header above contains a line with 'inDegrees', this indicates whether rotational values are in degrees (yes) or radians (no).

endheader
time	pelvis_tilt	pelvis_list	pelvis_rotation	pelvis_tx	pelvis_ty	pelvis_tz	hip_flexion_r	hip_adduction_r	hip_rotation_r	knee_angle_r	knee_angle_r_beta	ankle_angle_r	subtalar_angle_r	mtp_angle_r	hip_flexion_l	hip_adduction_l	hip_rotation_l	knee_angle_l	knee_angle_l_beta	ankle_angle_l	subtalar_angle_l	mtp_angle_l
     22.50000000	     -9.66482109	     -1.20907197	     -4.63645084	      2.16365372	      1.01851019	      1.13370272	     32.08860639	      6.41316296	     -7.29886896	      8.06612924	      0.14078051	     11.90929161	      5.95359032	      0.00000000	    -10.58381203	     -0.78925319	     -8.81533400	     47.12988518	      0.82257167	    -13.05935026	     -4.34519964	      0.00000000
     22.50666667	     -9.15290208	     -1.50376932	     -5.15055766	      2.16284608	      1.01558106	      1.13373280	     31.93856160	      6.64759950	     -7.71835372	      9.76566730	      0.17044305	     11.73189482	      5.97289102	      0.00000000	     -9.93244608	     -1.12627110	     -9.02224271	     51.02434544	      0.89054283	    -12.55084285	     -4.33745911	      0.00000000
     22.51333333	     -8.69209593	     -1.70670625	     -5.69466032	      2.16197883	      1.01206424	      1.13364218	     32.08861767	      6.68617425	     -8.28470890	     12.28676828	      0.21444456	     11.61078536	      6.22613527	      0.00000000	     -9.16727501	     -1.35887159	     -9.23389519	     54.90444545	      0.95826335	    -12.26648902	     -4.62146621	      0.00000000
     22.52000000	     -7.79088833	     -2.19062827	     -6.05290475	      2.16136106	      1.00896814	      1.13334028	     31.51561009	      6.92425171	     -8.48872185	     14.63016216	      0.25534450	     10.91983018	      5.58746403	      0.00000000	     -8.87452951	     -1.93801776	     -9.42447553	     58.69790766	      1.02447175	    -12.08535445	     -4.97933594	      0.00000000
     22.52666667	     -7.63373111	     -2.11736017	     -6.61654957	      2.16001771	      1.00409125	      1.13331178	     32.21913653	      6.67486570	     -8.61187005	     18.00800925	      0.31429905	     10.35989729	      5.24810216	      0.00000000	     -7.54631733	     -2.01834135	     -9.73726430	     62.67963498	      1.09396600	    -11.77947794	     -5.31086273	      0.00000000
     22.53333333	     -6.49155593	     -2.72802907	     -6.88798234	      2.15939063	      1.00067358	      1.13304966	     31.32674773	      6.96966702	     -8.69089527	     20.66063271	      0.36059607	      9.24174642	      4.34892235	      0.00000000	     -7.44029048	     -2.81862586	     -9.96254525	     66.34308571	      1.15790528	    -11.72275329	     -6.06109793	      0.00000000
     22.54000000	     -6.81784878	     -2.29650944	     -7.36812093	      2.15740439	      0.99450017	      1.13324959	     32.61029885	      6.57131540	     -7.92605128	     24.29824135	      0.42408431	      8.68171729	      2.75160884	      0.00000000	     -5.29780502	     -2.67429268	    -10.11703866	     70.37139361	      1.22821252	    -11.39374794	     -6.65504244	      0.00000000
     22.54666667	     -6.52022769	     -2.40729904	     -7.60811683	      2.15586971	      0.98938678	      1.13343166	     32.81924257	      6.62126965	     -7.39746931	     27.38735501	      0.47799952	      8.05287644	      1.08962937	      0.00000000	     -3.91507152	     -3.18673687	    -10.22204679	     74.16694431	      1.29445737	    -11.11221049	     -7.35589152	      0.00000000
     22.55333333	     -5.69189035	     -2.98121307	     -7.66461495	      2.15471063	      0.98519783	      1.13360445	     32.18488349	      6.96438198	     -7.37328462	     30.20894391	      0.52724553	      7.88372388	     -0.19745914	      0.00000000	     -3.18007064	     -4.20709498	    -10.19548300	     77.72489498	      1.35655533	    -10.83878556	     -8.12295725	      0.00000000
     22.56000000	     -6.20830821	     -2.64155218	     -7.89895488	      2.15227850	      0.97899280	      1.13424428	     33.31670377	      6.90876990	     -6.29422581	     33.38986012	      0.58276300	      8.01638884	     -2.34068627	      0.00000000	     -0.56635507	     -4.44639367	    -10.14508166	     81.48507420	      1.42218284	    -10.42077948	     -8.81128346	      0.00000000
